HIERARCHY
ROOT newVegas:Hips
{
	OFFSET 0.000000 96.479958 0.000000
	CHANNELS 6 Xposition Yposition Zposition Xrotation Yrotation Zrotation
	JOINT newVegas:Pelvis
	{
		OFFSET 0.000000 0.000000 0.000000
		CHANNELS 3 Xrotation Yrotation Zrotation
		JOINT newVegas:LeftUpLeg
		{
			OFFSET 18.735201 -5.666702 -4.541200
			CHANNELS 3 Xrotation Yrotation Zrotation
			JOINT newVegas:LeftLeg
			{
				OFFSET -0.021200 -31.938179 0.493100
				CHANNELS 3 Xrotation Yrotation Zrotation
				JOINT newVegas:LeftFoot
				{
					OFFSET 0.021200 -31.938179 -4.336299
					CHANNELS 3 Xrotation Yrotation Zrotation
					JOINT newVegas:LeftToeBase
					{
						OFFSET 0.943001 -26.722000 15.023500
						CHANNELS 3 Xrotation Yrotation Zrotation
						End Site
						{
							OFFSET 0.000000 30.670183 0.000000
						}
					}
				}
				JOINT newVegas:Left_PantLeg
				{
					OFFSET 0.663870 -9.044666 -1.108900
					CHANNELS 3 Xrotation Yrotation Zrotation
					End Site
					{
						OFFSET 1.415995 20.635357 0.000000
					}
				}
			}
		}
		JOINT newVegas:RightUpLeg
		{
			OFFSET -18.735201 -5.666702 -4.541200
			CHANNELS 3 Xrotation Yrotation Zrotation
			JOINT newVegas:RightLeg
			{
				OFFSET 0.018946 -31.938133 0.493100
				CHANNELS 3 Xrotation Yrotation Zrotation
				JOINT newVegas:RightFoot
				{
					OFFSET -0.018946 -31.938126 -4.336299
					CHANNELS 3 Xrotation Yrotation Zrotation
					JOINT newVegas:RightToeBase
					{
						OFFSET -0.943001 -26.722004 15.023500
						CHANNELS 3 Xrotation Yrotation Zrotation
						End Site
						{
							OFFSET 0.000000 30.670187 0.000000
						}
					}
				}
				JOINT newVegas:Right_PantLeg
				{
					OFFSET -0.661674 -9.044716 -1.108900
					CHANNELS 3 Xrotation Yrotation Zrotation
					End Site
					{
						OFFSET -1.415958 20.635269 0.000000
					}
				}
			}
		}
	}
	JOINT newVegas:Spine
	{
		OFFSET 0.000000 10.199997 -0.299500
		CHANNELS 3 Xrotation Yrotation Zrotation
		JOINT newVegas:Spine1
		{
			OFFSET 0.000000 11.900002 -1.516600
			CHANNELS 3 Xrotation Yrotation Zrotation
			JOINT newVegas:Spine2
			{
				OFFSET 0.000000 13.600006 -2.842500
				CHANNELS 3 Xrotation Yrotation Zrotation
				JOINT newVegas:Neck
				{
					OFFSET 0.000000 9.624100 -2.890100
					CHANNELS 3 Xrotation Yrotation Zrotation
					JOINT newVegas:Head
					{
						OFFSET 0.000000 14.068802 -1.351900
						CHANNELS 3 Xrotation Yrotation Zrotation
						JOINT newVegas:Hair_Back
						{
							OFFSET 0.000000 3.231903 -17.524799
							CHANNELS 3 Xrotation Yrotation Zrotation
							End Site
							{
								OFFSET 0.000000 19.849884 0.000000
							}
						}
						JOINT newVegas:Hair_Front
						{
							OFFSET 0.000000 31.260406 4.573800
							CHANNELS 3 Xrotation Yrotation Zrotation
							JOINT newVegas:Hair_Front1
							{
								OFFSET 0.000000 2.284103 11.993300
								CHANNELS 3 Xrotation Yrotation Zrotation
								JOINT newVegas:Hair_Front2
								{
									OFFSET 0.000000 2.284103 11.993300
									CHANNELS 3 Xrotation Yrotation Zrotation
									End Site
									{
										OFFSET 0.000000 12.208862 0.000000
									}
								}
							}
						}
						JOINT newVegas:Jowel
						{
							OFFSET 0.000000 -7.458206 6.864100
							CHANNELS 3 Xrotation Yrotation Zrotation
							End Site
							{
								OFFSET 0.000000 19.849884 0.000000
							}
						}
					}
				}
				JOINT newVegas:LeftShoulder
				{
					OFFSET 15.263000 10.923401 -0.547700
					CHANNELS 3 Xrotation Yrotation Zrotation
					JOINT newVegas:LeftArm
					{
						OFFSET 25.438599 -2.830597 -13.032500
						CHANNELS 3 Xrotation Yrotation Zrotation
						JOINT newVegas:LeftForeArm
						{
							OFFSET 29.960503 0.000000 0.000000
							CHANNELS 3 Xrotation Yrotation Zrotation
							JOINT newVegas:LeftHand
							{
								OFFSET 27.849251 0.000000 0.000000
								CHANNELS 3 Xrotation Yrotation Zrotation
								JOINT newVegas:LeftHandThumb1
								{
									OFFSET 4.487587 -3.305161 6.305391
									CHANNELS 3 Xrotation Yrotation Zrotation
									JOINT newVegas:LeftHandThumb2
									{
										OFFSET 5.480453 -3.164139 3.164143
										CHANNELS 3 Xrotation Yrotation Zrotation
										JOINT newVegas:LeftHandThumb3
										{
											OFFSET 5.159721 -2.978973 2.978967
											CHANNELS 3 Xrotation Yrotation Zrotation
											End Site
											{
												OFFSET 2.494507 5.926697 1.738678
											}
										}
									}
								}
								JOINT newVegas:LeftHandIndex1
								{
									OFFSET 18.578728 -0.527832 5.208049
									CHANNELS 3 Xrotation Yrotation Zrotation
									JOINT newVegas:LeftHandIndex2
									{
										OFFSET 3.192009 0.000000 0.000000
										CHANNELS 3 Xrotation Yrotation Zrotation
										JOINT newVegas:LeftHandIndex3
										{
											OFFSET 3.835129 0.000000 0.000000
											CHANNELS 3 Xrotation Yrotation Zrotation
											End Site
											{
												OFFSET -0.034599 3.816971 0.371180
											}
										}
									}
								}
								JOINT newVegas:LeftHandMiddle1
								{
									OFFSET 18.476105 0.000000 0.000000
									CHANNELS 3 Xrotation Yrotation Zrotation
									JOINT newVegas:LeftHandMiddle2
									{
										OFFSET 3.324875 0.000000 0.000000
										CHANNELS 3 Xrotation Yrotation Zrotation
										JOINT newVegas:LeftHandMiddle3
										{
											OFFSET 4.596550 0.000000 0.000000
											CHANNELS 3 Xrotation Yrotation Zrotation
											End Site
											{
												OFFSET 0.057701 4.578827 0.399218
											}
										}
									}
								}
								JOINT newVegas:LeftHandRing1
								{
									OFFSET 17.732719 0.121887 -4.201567
									CHANNELS 3 Xrotation Yrotation Zrotation
									JOINT newVegas:LeftHandRing2
									{
										OFFSET 2.733170 0.000000 0.000000
										CHANNELS 3 Xrotation Yrotation Zrotation
										JOINT newVegas:LeftHandRing3
										{
											OFFSET 3.178268 0.000000 0.000000
											CHANNELS 3 Xrotation Yrotation Zrotation
											End Site
											{
												OFFSET 0.119102 3.170624 0.185394
											}
										}
									}
								}
								JOINT newVegas:LeftHandPinky1
								{
									OFFSET 15.989624 -0.606689 -7.535461
									CHANNELS 3 Xrotation Yrotation Zrotation
									JOINT newVegas:LeftHandPinky2
									{
										OFFSET 2.538986 0.000000 0.000000
										CHANNELS 3 Xrotation Yrotation Zrotation
										JOINT newVegas:LeftHandPinky3
										{
											OFFSET 2.593102 0.000000 0.000000
											CHANNELS 3 Xrotation Yrotation Zrotation
											End Site
											{
												OFFSET -0.150902 2.584198 0.152708
											}
										}
									}
								}
							}
							JOINT newVegas:Left_Sleeve
							{
								OFFSET 0.267448 -0.649796 0.577675
								CHANNELS 3 Xrotation Yrotation Zrotation
								End Site
								{
									OFFSET 0.000000 15.991241 0.000000
								}
							}
							JOINT newVegas:Left_CapeC
							{
								OFFSET 15.715958 -8.608795 -6.935905
								CHANNELS 3 Xrotation Yrotation Zrotation
								JOINT newVegas:Left_CapeC1
								{
									OFFSET 0.000000 -8.688499 0.000000
									CHANNELS 3 Xrotation Yrotation Zrotation
									End Site
									{
										OFFSET 0.000000 8.688499 0.000000
									}
								}
							}
						}
						JOINT newVegas:Left_CapeB
						{
							OFFSET 26.118385 -8.608795 -7.079235
							CHANNELS 3 Xrotation Yrotation Zrotation
							JOINT newVegas:Left_CapeB1
							{
								OFFSET 0.000000 -8.688499 0.000000
								CHANNELS 3 Xrotation Yrotation Zrotation
								End Site
								{
									OFFSET 0.000000 8.688499 0.000000
								}
							}
						}
						JOINT newVegas:Left_CapeA
						{
							OFFSET 5.115639 -8.608795 -10.395809
							CHANNELS 3 Xrotation Yrotation Zrotation
							JOINT newVegas:Left_CapeA1
							{
								OFFSET 0.000000 -8.688499 0.000000
								CHANNELS 3 Xrotation Yrotation Zrotation
								End Site
								{
									OFFSET 0.000000 8.688499 0.000000
								}
							}
						}
					}
				}
				JOINT newVegas:RightShoulder
				{
					OFFSET -15.263000 10.923401 -0.547700
					CHANNELS 3 Xrotation Yrotation Zrotation
					JOINT newVegas:RightArm
					{
						OFFSET -25.438599 -2.830597 -13.032500
						CHANNELS 3 Xrotation Yrotation Zrotation
						JOINT newVegas:RightForeArm
						{
							OFFSET -29.960503 0.000000 0.000000
							CHANNELS 3 Xrotation Yrotation Zrotation
							JOINT newVegas:RightHand
							{
								OFFSET -27.849251 0.000000 0.000000
								CHANNELS 3 Xrotation Yrotation Zrotation
								JOINT newVegas:RightHandThumb1
								{
									OFFSET -4.487587 -3.305161 6.305391
									CHANNELS 3 Xrotation Yrotation Zrotation
									JOINT newVegas:RightHandThumb2
									{
										OFFSET -5.480453 -3.164139 3.164143
										CHANNELS 3 Xrotation Yrotation Zrotation
										JOINT newVegas:RightHandThumb3
										{
											OFFSET -5.159721 -2.978973 2.978967
											CHANNELS 3 Xrotation Yrotation Zrotation
											End Site
											{
												OFFSET -2.494507 5.926697 1.738678
											}
										}
									}
								}
								JOINT newVegas:RightHandIndex1
								{
									OFFSET -18.578728 -0.527832 5.208049
									CHANNELS 3 Xrotation Yrotation Zrotation
									JOINT newVegas:RightHandIndex2
									{
										OFFSET -3.192009 0.000000 0.000000
										CHANNELS 3 Xrotation Yrotation Zrotation
										JOINT newVegas:RightHandIndex3
										{
											OFFSET -3.835129 0.000000 0.000000
											CHANNELS 3 Xrotation Yrotation Zrotation
											End Site
											{
												OFFSET 0.034599 3.816971 0.371180
											}
										}
									}
								}
								JOINT newVegas:RightHandMiddle1
								{
									OFFSET -18.476105 0.000000 0.000000
									CHANNELS 3 Xrotation Yrotation Zrotation
									JOINT newVegas:RightHandMiddle2
									{
										OFFSET -3.324875 0.000000 0.000000
										CHANNELS 3 Xrotation Yrotation Zrotation
										JOINT newVegas:RightHandMiddle3
										{
											OFFSET -4.596550 0.000000 0.000000
											CHANNELS 3 Xrotation Yrotation Zrotation
											End Site
											{
												OFFSET -0.057701 4.578827 0.399218
											}
										}
									}
								}
								JOINT newVegas:RightHandRing1
								{
									OFFSET -17.732719 0.121887 -4.201567
									CHANNELS 3 Xrotation Yrotation Zrotation
									JOINT newVegas:RightHandRing2
									{
										OFFSET -2.733170 0.000000 0.000000
										CHANNELS 3 Xrotation Yrotation Zrotation
										JOINT newVegas:RightHandRing3
										{
											OFFSET -3.178268 0.000000 0.000000
											CHANNELS 3 Xrotation Yrotation Zrotation
											End Site
											{
												OFFSET -0.119102 3.170624 0.185394
											}
										}
									}
								}
								JOINT newVegas:RightHandPinky1
								{
									OFFSET -15.989624 -0.606689 -7.535461
									CHANNELS 3 Xrotation Yrotation Zrotation
									JOINT newVegas:RightHandPinky2
									{
										OFFSET -2.538986 0.000000 0.000000
										CHANNELS 3 Xrotation Yrotation Zrotation
										JOINT newVegas:RightHandPinky3
										{
											OFFSET -2.593102 0.000000 0.000000
											CHANNELS 3 Xrotation Yrotation Zrotation
											End Site
											{
												OFFSET 0.150902 2.584198 0.152708
											}
										}
									}
								}
							}
							JOINT newVegas:Right_CapeC
							{
								OFFSET -15.715958 -8.608795 -6.935905
								CHANNELS 3 Xrotation Yrotation Zrotation
								JOINT newVegas:Right_CapeC1
								{
									OFFSET 0.000000 -8.688499 0.000000
									CHANNELS 3 Xrotation Yrotation Zrotation
									End Site
									{
										OFFSET 0.000000 8.688499 0.000000
									}
								}
							}
							JOINT newVegas:Right_Sleeve
							{
								OFFSET -0.267448 -0.649994 0.577675
								CHANNELS 3 Xrotation Yrotation Zrotation
								End Site
								{
									OFFSET 0.000000 15.991302 0.000000
								}
							}
						}
						JOINT newVegas:Right_CapeA
						{
							OFFSET -5.115540 -8.608795 -10.395824
							CHANNELS 3 Xrotation Yrotation Zrotation
							JOINT newVegas:Right_CapeA1
							{
								OFFSET 0.000000 -8.688499 0.000000
								CHANNELS 3 Xrotation Yrotation Zrotation
								End Site
								{
									OFFSET 0.000000 8.688499 0.000000
								}
							}
						}
						JOINT newVegas:Right_CapeB
						{
							OFFSET -26.118187 -8.608795 -7.079266
							CHANNELS 3 Xrotation Yrotation Zrotation
							JOINT newVegas:Right_CapeB1
							{
								OFFSET 0.000000 -8.688499 0.000000
								CHANNELS 3 Xrotation Yrotation Zrotation
								End Site
								{
									OFFSET 0.000000 8.688499 0.000000
								}
							}
						}
					}
				}
				JOINT newVegas:Left_Collar
				{
					OFFSET 18.625099 8.655502 8.828100
					CHANNELS 3 Xrotation Yrotation Zrotation
					JOINT newVegas:Left_Collar1
					{
						OFFSET 14.783401 10.540405 -1.259500
						CHANNELS 3 Xrotation Yrotation Zrotation
						End Site
						{
							OFFSET 0.000000 18.199875 0.000000
						}
					}
				}
				JOINT newVegas:Collar_Back
				{
					OFFSET 0.000000 15.630707 -20.132601
					CHANNELS 3 Xrotation Yrotation Zrotation
					End Site
					{
						OFFSET 0.000000 22.523010 0.000000
					}
				}
				JOINT newVegas:Left_Peck
				{
					OFFSET 17.239599 -5.132599 25.482599
					CHANNELS 3 Xrotation Yrotation Zrotation
					End Site
					{
						OFFSET 0.000000 22.523010 0.000000
					}
				}
				JOINT newVegas:Right_Peck
				{
					OFFSET -17.239599 -5.132202 25.482599
					CHANNELS 3 Xrotation Yrotation Zrotation
					End Site
					{
						OFFSET 0.000000 22.523010 0.000000
					}
				}
				JOINT newVegas:Right_Collar
				{
					OFFSET -18.625099 8.655792 8.828100
					CHANNELS 3 Xrotation Yrotation Zrotation
					JOINT newVegas:Right_Collar1
					{
						OFFSET -14.783401 10.539993 -1.259500
						CHANNELS 3 Xrotation Yrotation Zrotation
						End Site
						{
							OFFSET 0.000000 18.199631 0.000000
						}
					}
				}
			}
		}
		JOINT newVegas:Belly
		{
			OFFSET 0.000000 -6.540398 9.014299
			CHANNELS 3 Xrotation Yrotation Zrotation
			End Site
			{
				OFFSET 0.000000 11.566666 0.000000
			}
		}
	}
	JOINT newVegas:ElvisFacialAnim_Joint
	{
		OFFSET 1.000000 -95.330101 -8.825800
		CHANNELS 3 Xrotation Yrotation Zrotation
		End Site
		{
			OFFSET 0.000000 35.315800 0.000000
		}
	}
}
MOTION
Frames: 4
Frame Time: 0.016667
-2.629495 80.373825 2.605096 -5.290073 -44.954048 0.012939 -0.000000 -0.000001 -0.000000 -36.910998 3.269460 21.343820 62.508423 -8.152255 4.188304 -22.911070 -6.711860 -18.589794 0.000000 -0.000002 0.000000 -0.000000 0.000002 -0.000001 -20.977326 -8.980649 -32.624846 63.053499 -6.514585 -7.419046 -31.031858 -9.960352 27.205936 -0.000000 0.000001 0.000000 -0.000000 0.000000 -0.000002 9.462110 7.035652 -1.694631 2.187715 0.989907 -0.915632 2.202829 0.982775 -0.894152 2.650096 3.452582 -0.064204 2.650098 3.452599 -0.064196 0.000000 -0.000000 0.000000 2.649846 3.452611 -0.064164 2.650165 3.452465 -0.064152 -0.000002 -0.000002 0.000001 0.000000 -0.000000 0.000000 1.117182 3.546344 -8.633310 -53.487020 4.935514 -51.502990 0.000697 -106.358046 0.000705 1.988613 -7.706137 -15.869246 -6.141215 -11.690807 -6.761681 9.914106 42.595512 3.409861 -0.000002 0.000003 -0.000003 0.255311 3.378221 -45.814327 5.654099 5.847756 -88.067455 -0.000002 -0.000000 -0.000000 -0.461472 3.841584 -39.722676 6.450735 5.820341 -95.892864 -0.000002 0.000002 -0.000001 0.469729 4.966804 -39.799444 8.181035 5.368589 -113.502984 0.000000 -0.000001 0.000002 -3.762423 9.063709 -45.253818 5.342496 5.828974 -85.005324 -0.000000 0.000002 0.000001 0.000001 0.000006 -0.000003 0.000001 0.000006 -0.000003 0.000001 0.000006 -0.000003 0.000001 -0.000002 -0.000001 0.000001 -0.000003 -0.000000 0.000001 -0.000002 -0.000001 0.000001 -0.000003 -0.000001 3.036129 13.027184 -5.371406 -48.713725 27.172832 83.457091 0.000552 105.988342 -0.000536 -8.345365 17.548079 8.775668 -7.341103 13.749666 7.412325 9.855746 -44.489117 -3.903267 0.000001 -0.000005 -0.000003 -0.124374 -2.384780 45.108864 4.500596 -4.654546 88.071184 0.000000 -0.000001 -0.000001 -0.761631 -2.932899 39.031075 5.133885 -4.632741 95.881656 -0.000001 0.000002 -0.000000 0.154752 -4.068798 39.122664 6.509731 -4.273579 113.462870 0.000000 -0.000003 -0.000000 -4.198880 -8.025522 44.637783 4.252892 -4.639592 85.014805 -0.000001 0.000003 0.000002 0.000000 0.000000 0.000000 0.000000 -0.000004 -0.000002 0.000000 0.000000 0.000001 0.000000 0.000002 -0.000001 0.000000 0.000003 -0.000001 0.000000 0.000002 -0.000001 0.000000 0.000003 -0.000002 -0.000000 0.000001 -0.000000 -0.000000 0.000001 -0.000000 -0.000000 0.000001 -0.000000 -0.000000 0.000001 -0.000000 -0.000000 0.000001 -0.000000 -0.000000 0.000001 -0.000000 -0.000000 0.000001 -0.000000 0.000000 0.000000 -0.000000 -0.000000 -0.000001 -0.000000 
-2.671347 80.262383 2.358267 -5.394627 -45.217481 -0.053843 -0.000000 0.000002 0.000001 -37.576385 2.872733 21.437534 63.187344 -8.056875 4.281776 -21.846980 -6.650984 -18.766824 -0.000000 0.000001 0.000000 -0.000000 -0.000003 0.000004 -21.393848 -8.863282 -32.667190 63.518724 -6.106741 -7.546294 -31.239332 -9.990834 27.283232 0.000000 -0.000000 0.000000 0.000002 -0.000001 -0.000002 9.476479 7.124178 -1.557718 2.190247 1.012035 -0.889779 2.204670 1.005825 -0.868759 2.648600 3.455407 -0.101904 2.648607 3.455407 -0.101900 0.000001 -0.000001 -0.000000 2.648752 3.455372 -0.101909 2.648465 3.455432 -0.101903 0.000001 -0.000001 -0.000000 0.000001 -0.000001 -0.000000 1.115723 3.626838 -8.693361 -53.153652 4.985191 -51.684339 -0.000001 -106.535214 0.000002 2.135046 -7.826399 -15.735542 -6.141215 -11.690801 -6.761679 9.914106 42.595512 3.409869 -0.000000 0.000002 -0.000002 0.255309 3.378221 -45.814327 5.654096 5.847755 -88.067455 0.000001 -0.000000 -0.000000 -0.461473 3.841584 -39.722676 6.450736 5.820338 -95.892864 0.000001 -0.000002 -0.000001 0.469727 4.966808 -39.799441 8.181033 5.368589 -113.502984 0.000001 -0.000001 -0.000001 -3.762423 9.063710 -45.253811 5.342501 5.828976 -85.005324 -0.000001 0.000000 -0.000002 0.000001 -0.000001 -0.000001 0.000001 -0.000001 -0.000001 0.000001 -0.000000 -0.000001 0.000001 0.000002 -0.000001 0.000001 0.000001 -0.000001 0.000001 0.000002 -0.000001 0.000001 0.000000 -0.000001 3.033765 13.290778 -5.488888 -48.445572 26.967609 82.836473 0.000220 106.217228 -0.000213 -8.837550 17.355377 8.303441 -7.341099 13.749667 7.412325 9.855741 -44.489117 -3.903276 -0.000000 -0.000003 0.000001 -0.124374 -2.384786 45.108861 4.500593 -4.654545 88.071184 0.000001 -0.000001 -0.000000 -0.761631 -2.932904 39.031075 5.133885 -4.632741 95.881656 -0.000000 -0.000001 0.000000 0.154752 -4.068800 39.122661 6.509732 -4.273577 113.462870 -0.000000 0.000001 -0.000000 -4.198876 -8.025524 44.637779 4.252892 -4.639590 85.014805 -0.000001 -0.000000 -0.000001 0.000001 0.000000 -0.000000 0.000001 -0.000000 -0.000000 0.000001 -0.000000 -0.000001 0.000001 0.000002 -0.000000 0.000001 0.000003 -0.000000 0.000001 0.000002 -0.000000 0.000001 0.000003 -0.000001 -0.000000 0.000000 -0.000001 -0.000000 0.000000 -0.000001 -0.000000 0.000000 -0.000001 -0.000000 0.000000 -0.000001 -0.000000 0.000000 -0.000001 -0.000000 0.000000 -0.000001 -0.000000 0.000000 -0.000001 -0.000000 -0.000000 0.000001 -0.000000 0.000002 0.000001 
-2.683264 80.147018 2.149209 -5.525757 -45.505883 -0.151722 0.000000 0.000001 -0.000001 -38.238503 2.454203 21.526560 63.947981 -7.891514 4.323566 -20.783999 -6.682647 -18.910567 -0.000000 -0.000001 -0.000000 0.000001 0.000001 0.000001 -21.883631 -8.768848 -32.707276 64.040127 -5.682573 -7.724607 -31.452738 -9.992881 27.234445 -0.000000 0.000001 0.000000 0.000001 0.000000 0.000000 9.510693 7.186068 -1.409409 2.197573 1.027106 -0.862103 2.211432 1.021842 -0.841509 2.646255 3.457977 -0.138232 2.646248 3.457991 -0.138236 -0.000000 0.000000 0.000000 2.646254 3.457982 -0.138231 2.646251 3.457999 -0.138233 0.000001 0.000001 0.000000 -0.000000 0.000000 0.000000 1.116597 3.696294 -8.750944 -52.843019 5.031848 -51.853430 -0.000635 -106.672405 -0.000617 2.300308 -7.951172 -15.637930 -6.141216 -11.690803 -6.761678 9.914098 42.595512 3.409860 0.000001 -0.000000 -0.000005 0.255312 3.378222 -45.814331 5.654098 5.847755 -88.067455 0.000001 -0.000001 0.000000 -0.461472 3.841586 -39.722679 6.450733 5.820340 -95.892864 0.000000 0.000001 0.000000 0.469729 4.966809 -39.799444 8.181033 5.368593 -113.502984 -0.000002 0.000001 0.000001 -3.762425 9.063709 -45.253814 5.342498 5.828974 -85.005324 -0.000001 0.000004 -0.000001 0.000000 0.000001 -0.000001 0.000000 0.000001 -0.000001 0.000000 0.000001 -0.000000 -0.000001 -0.000001 0.000001 -0.000001 -0.000002 0.000001 -0.000001 -0.000001 0.000001 -0.000001 -0.000002 0.000000 3.025578 13.532536 -5.623952 -48.207748 26.760172 82.252970 -0.000495 106.474262 0.000467 -9.184479 17.196915 7.719676 -7.341099 13.749668 7.412324 9.855738 -44.489117 -3.903271 0.000003 -0.000002 -0.000001 -0.124373 -2.384783 45.108864 4.500597 -4.654543 88.071184 -0.000001 0.000001 -0.000000 -0.761629 -2.932901 39.031075 5.133882 -4.632741 95.881663 0.000000 0.000000 0.000000 0.154755 -4.068798 39.122661 6.509729 -4.273578 113.462863 -0.000001 -0.000003 -0.000000 -4.198874 -8.025524 44.637783 4.252890 -4.639593 85.014805 -0.000000 -0.000004 -0.000001 0.000000 0.000001 -0.000000 -0.000000 -0.000001 -0.000001 0.000000 0.000001 -0.000001 0.000001 0.000003 0.000001 0.000001 0.000004 -0.000001 0.000001 0.000003 0.000001 0.000001 0.000004 0.000000 -0.000000 0.000003 -0.000001 -0.000000 0.000003 -0.000001 -0.000000 0.000003 -0.000001 -0.000000 0.000003 -0.000001 -0.000000 0.000003 -0.000001 -0.000000 0.000003 -0.000001 -0.000000 0.000003 -0.000001 0.000000 0.000001 -0.000000 0.000000 0.000001 -0.000001 
-2.669615 80.026001 1.982195 -5.685327 -45.811206 -0.276818 -0.000000 -0.000003 0.000000 -38.926279 2.023584 21.581608 64.814807 -7.725416 4.351553 -19.674874 -6.733579 -18.996269 -0.000000 -0.000002 0.000000 -0.000000 0.000002 -0.000001 -22.398569 -8.685543 -32.763144 64.574343 -5.229431 -7.941684 -31.656909 -9.980755 27.129773 0.000000 0.000001 -0.000000 -0.000001 -0.000001 0.000000 9.560468 7.221024 -1.259245 2.208616 1.035254 -0.834413 2.222026 1.030869 -0.814189 2.644881 3.459818 -0.171072 2.644906 3.459817 -0.171050 0.000001 0.000002 0.000000 2.645132 3.459805 -0.171089 2.644818 3.459880 -0.171082 0.000000 0.000000 0.000000 0.000001 0.000002 -0.000000 1.119848 3.753403 -8.805219 -52.554819 5.073450 -52.013123 0.000638 -106.767557 0.000622 2.477031 -8.092276 -15.589502 -6.141215 -11.690802 -6.761676 9.914102 42.595512 3.409857 0.000004 0.000002 -0.000004 0.255309 3.378221 -45.814327 5.654095 5.847753 -88.067455 -0.000001 -0.000002 -0.000001 -0.461472 3.841588 -39.722676 6.450736 5.820341 -95.892864 0.000000 -0.000000 0.000000 0.469727 4.966808 -39.799441 8.181034 5.368593 -113.502984 -0.000003 -0.000004 -0.000001 -3.762423 9.063707 -45.253808 5.342500 5.828975 -85.005324 0.000002 0.000004 -0.000001 0.000000 -0.000004 0.000001 0.000000 -0.000004 0.000001 0.000000 -0.000003 0.000001 0.000000 -0.000001 -0.000001 0.000000 -0.000002 -0.000001 0.000000 -0.000001 -0.000001 0.000000 -0.000003 -0.000001 3.012410 13.754813 -5.753861 -47.992331 26.566308 81.688858 0.000053 106.756246 -0.000056 -9.402027 17.062735 7.024379 -7.341101 13.749673 7.412319 9.855738 -44.489117 -3.903277 0.000001 -0.000002 -0.000002 -0.124374 -2.384781 45.108864 4.500596 -4.654548 88.071184 0.000001 0.000002 -0.000003 -0.761630 -2.932897 39.031075 5.133884 -4.632743 95.881656 0.000000 -0.000001 0.000002 0.154752 -4.068796 39.122668 6.509727 -4.273576 113.462870 0.000000 0.000001 0.000000 -4.198881 -8.025519 44.637779 4.252897 -4.639593 85.014805 0.000001 -0.000002 -0.000001 0.000001 0.000005 -0.000002 0.000000 0.000001 -0.000002 0.000001 0.000005 -0.000001 -0.000000 -0.000002 0.000001 -0.000000 -0.000001 0.000001 -0.000000 -0.000002 0.000001 -0.000000 -0.000001 0.000000 -0.000000 0.000002 -0.000000 -0.000000 0.000002 -0.000000 -0.000000 0.000002 -0.000000 -0.000000 0.000002 -0.000000 -0.000000 0.000002 -0.000000 -0.000000 0.000002 -0.000000 -0.000000 0.000002 -0.000000 0.000000 -0.000000 -0.000000 -0.000000 -0.000003 0.000000 
